<?xml version="1.0" encoding="utf-8"?>
<!-- Generator: Adobe Illustrator 27.9.0, SVG Export Plug-In . SVG Version: 6.00 Build 0)  -->
<svg version="1.1" id="Layer_1" xmlns="http://www.w3.org/2000/svg" xmlns:xlink="http://www.w3.org/1999/xlink" x="0px" y="0px"
	 viewBox="0 0 25 25" style="enable-background:new 0 0 25 25;" xml:space="preserve">
<style type="text/css">
	.st0{fill:#FFFFFF;}
	.st1{fill:url(#SVGID_1_);}
</style>
<g>
	<path class="st0" d="M9.5,24.1L0.4,9c-0.5-0.8-0.5-1.7,0-2.5l2.8-4.9c0.4-0.8,1.3-1.2,2.1-1.2h18.5c1,0,1.6,1,1.1,1.9l-2.6,4.4
		c-0.4,0.7-1.2,1.2-2.1,1.2H8.3l6.6,10.9l-3.3,5.4C11.1,24.9,10,24.9,9.5,24.1z"/>
</g>
<g>
	
		<linearGradient id="SVGID_1_" gradientUnits="userSpaceOnUse" x1="7.866" y1="991.4536" x2="16.2853" y2="986.7324" gradientTransform="matrix(1 0 0 1 0 -973.683)">
		<stop  offset="0" style="stop-color:#000000"/>
		<stop  offset="1" style="stop-color:#FFFFFF"/>
	</linearGradient>
	<path class="st1" d="M17.1,11.4h-6.5l4.3,7.2l3.2-5.3C18.6,12.5,18,11.4,17.1,11.4z"/>
</g>
</svg>
