<?xml version="1.0" encoding="utf-8"?>
<!-- Generator: Adobe Illustrator 27.9.0, SVG Export Plug-In . SVG Version: 6.00 Build 0)  -->
<svg version="1.1" id="Layer_1" xmlns="http://www.w3.org/2000/svg" xmlns:xlink="http://www.w3.org/1999/xlink" x="0px" y="0px"
	 viewBox="0 0 131 22.4" style="enable-background:new 0 0 131 22.4;" xml:space="preserve">
<style type="text/css">
	.st0{fill:#FFFFFF;}
</style>
<g>
	<path class="st0" d="M18.5,0c-1.6,0-3.1,1-3.6,2.4C14.3,1,12.9,0,11.2,0S8.2,1,7.6,2.4C7,1,5.6,0,3.9,0C1.8,0,0,1.8,0,3.9
		C0,5.6,1,7,2.4,7.6C1,8.2,0,9.6,0,11.2c0,1.6,1,3.1,2.4,3.6C1,15.4,0,16.9,0,18.5c0,2.2,1.8,3.9,3.9,3.9s3.9-1.8,3.9-3.9
		c0-1.6-1-3.1-2.4-3.6c1-0.4,1.8-1.2,2.2-2.2c0.6,1.4,2,2.4,3.6,2.4c2.2,0,3.9-1.8,3.9-3.9c0-1.6-1-3.1-2.4-3.6
		c1-0.4,1.8-1.2,2.2-2.2c0.6,1.4,2,2.4,3.6,2.4c2.2,0,3.9-1.8,3.9-3.9C22.4,1.8,20.7,0,18.5,0z M7.6,9.7C7.2,8.8,6.4,8,5.4,7.6
		c1-0.4,1.8-1.2,2.2-2.2c0.4,1,1.2,1.8,2.2,2.2C8.8,8,8,8.8,7.6,9.7z"/>
	<path class="st0" d="M18.5,10.3c-0.5,0-0.9,0.4-0.9,0.9c0,0.5,0.4,0.9,0.9,0.9s0.9-0.4,0.9-0.9C19.4,10.7,19,10.3,18.5,10.3z"/>
	<path class="st0" d="M11.2,17.6c-0.5,0-0.9,0.4-0.9,0.9c0,0.5,0.4,0.9,0.9,0.9s0.9-0.4,0.9-0.9C12.2,18,11.7,17.6,11.2,17.6z"/>
	<path class="st0" d="M18.5,17.6c-0.5,0-0.9,0.4-0.9,0.9c0,0.5,0.4,0.9,0.9,0.9s0.9-0.4,0.9-0.9C19.4,18,19,17.6,18.5,17.6z"/>
	<polygon class="st0" points="31.2,5 38.9,5 38.9,2.9 32.8,2.9 28.9,6.8 28.9,18.5 31.2,18.5 31.2,11.7 37.4,11.7 37.4,9.6 
		31.2,9.6 	"/>
	<path class="st0" d="M43.3,7.2c-2.6,0-4.6,1.6-4.8,3.8h2C40.6,9.9,41.7,9,43.3,9C45,9,46,9.9,46,11.2c0,0.4-0.2,0.7-0.7,0.7h-2.3
		c-2.6,0-4.3,1.3-4.3,3.5c0,2,1.5,3.4,3.8,3.4c1.7,0,3.1-0.8,3.6-2v1.8h2.1v-7.2C48.1,8.9,46.2,7.2,43.3,7.2z M46,13.7L46,13.7
		c0,2.1-1.2,3.4-3.2,3.4c-1.2,0-2.1-0.7-2.1-1.7c0-1.2,0.9-1.9,2.4-1.9H46V13.7z"/>
	<polygon class="st0" points="49.4,13 49.4,13 49.4,13 	"/>
	<path class="st0" d="M55,9.1c1.5,0,2.8,0.9,3,2.2h2.1c-0.3-2.5-2.6-4.1-5.2-4.1c-3.5,0-5.5,2.7-5.5,5.7c0,3.1,2,5.7,5.5,5.7
		c2.8,0,4.8-1.6,5.2-3.9H58c-0.4,1.3-1.5,2.1-3,2.1c-2.2,0-3.3-1.7-3.3-3.9C51.6,10.8,52.7,9.1,55,9.1z"/>
	<path class="st0" d="M69.7,14.9c-0.3,1.3-1.4,2-3,2c-1.9,0-3.3-1.4-3.5-3.5h8.5c0-0.2,0-0.6,0-0.8c0-2.8-1.9-5.3-5.3-5.3
		c-3.4,0-5.4,2.6-5.4,5.7c0,3.1,2.1,5.8,5.6,5.8c2.7,0,4.7-1.5,5.1-3.8h0H69.7z M66.5,9c1.8,0,3,1.1,3.1,2.8h-6.3
		C63.6,9.9,64.6,9,66.5,9z"/>
	<path class="st0" d="M76.2,3.9L76.2,3.9h-2.1v3.5h-2.3v1.9h2.3v5.6c0,2.3,1.4,3.6,3.7,3.6h1.7v-1.9H78c-1.1,0-1.7-0.7-1.7-1.9V9.3
		h3.3V7.4h-3.3V3.9z"/>
	<path class="st0" d="M90.3,9.7c-0.4,0-0.8,0.1-1.1,0.4c-0.2,0.2-0.3,0.4-0.4,0.7c-0.1-0.3-0.2-0.5-0.4-0.7
		c-0.3-0.3-0.7-0.4-1.1-0.4c-0.4,0-0.8,0.1-1.1,0.4c-0.2,0.2-0.3,0.4-0.4,0.7c-0.1-0.3-0.2-0.5-0.4-0.7c-0.3-0.3-0.7-0.4-1.1-0.4
		c-0.4,0-0.8,0.1-1.1,0.4c-0.3,0.3-0.4,0.7-0.4,1.1c0,0.4,0.1,0.8,0.4,1.1c0.3,0.3,0.7,0.4,1.1,0.4c0.4,0,0.8-0.1,1.1-0.4
		c0.2-0.2,0.3-0.4,0.4-0.7c0.1,0.2,0.2,0.5,0.4,0.7c0.3,0.3,0.7,0.4,1.1,0.4c0.4,0,0.8-0.1,1.1-0.4c0.2-0.2,0.3-0.4,0.4-0.7
		c0.1,0.2,0.2,0.5,0.4,0.7c0.3,0.3,0.7,0.4,1.1,0.4c0.4,0,0.8-0.1,1.1-0.4c0.3-0.3,0.4-0.7,0.4-1.1c0-0.4-0.1-0.8-0.4-1.1
		C91.1,9.9,90.7,9.7,90.3,9.7z"/>
	<path class="st0" d="M84.4,6.9c0.4,0,0.8-0.1,1.1-0.4c0.2-0.2,0.3-0.4,0.4-0.7c0.1,0.2,0.2,0.5,0.4,0.7c0.3,0.3,0.7,0.4,1.1,0.4
		c0.4,0,0.8-0.1,1.1-0.4c0.2-0.2,0.3-0.4,0.4-0.7C88.9,6,89,6.3,89.2,6.5c0.3,0.3,0.7,0.4,1.1,0.4c0.4,0,0.8-0.1,1.1-0.4
		c0.3-0.3,0.4-0.7,0.4-1.1c0-0.4-0.1-0.8-0.4-1.1c-0.3-0.3-0.7-0.4-1.1-0.4c-0.4,0-0.8,0.1-1.1,0.4C89,4.5,88.9,4.7,88.8,5
		c-0.1-0.3-0.2-0.5-0.4-0.7c-0.3-0.3-0.7-0.4-1.1-0.4c-0.4,0-0.8,0.1-1.1,0.4c-0.2,0.2-0.3,0.4-0.4,0.7c-0.1-0.3-0.2-0.5-0.4-0.7
		c-0.3-0.3-0.7-0.4-1.1-0.4c-0.4,0-0.8,0.1-1.1,0.4c-0.3,0.3-0.4,0.7-0.4,1.1c0,0.4,0.1,0.8,0.4,1.1S84,6.9,84.4,6.9z"/>
	<path class="st0" d="M90.3,15.6c-0.4,0-0.8,0.1-1.1,0.4c-0.2,0.2-0.3,0.4-0.4,0.7c-0.1-0.3-0.2-0.5-0.4-0.7
		c-0.3-0.3-0.7-0.4-1.1-0.4c-0.4,0-0.8,0.1-1.1,0.4c-0.2,0.2-0.3,0.4-0.4,0.7c-0.1-0.3-0.2-0.5-0.4-0.7c-0.3-0.3-0.7-0.4-1.1-0.4
		c-0.4,0-0.8,0.1-1.1,0.4c-0.3,0.3-0.4,0.7-0.4,1.1c0,0.4,0.1,0.8,0.4,1.1c0.3,0.3,0.7,0.4,1.1,0.4c0.4,0,0.8-0.1,1.1-0.4
		c0.2-0.2,0.3-0.4,0.4-0.7c0.1,0.2,0.2,0.5,0.4,0.7c0.3,0.3,0.7,0.4,1.1,0.4c0.4,0,0.8-0.1,1.1-0.4c0.2-0.2,0.3-0.4,0.4-0.7
		c0.1,0.2,0.2,0.5,0.4,0.7c0.3,0.3,0.7,0.4,1.1,0.4c0.4,0,0.8-0.1,1.1-0.4c0.3-0.3,0.4-0.7,0.4-1.1c0-0.4-0.1-0.8-0.4-1.1
		C91.1,15.7,90.7,15.6,90.3,15.6z"/>
	<path class="st0" d="M91.7,12.7c-0.4,0-0.8,0.1-1.1,0.4c-0.3,0.3-0.4,0.7-0.4,1.1c0,0.4,0.1,0.8,0.4,1.1c0.3,0.3,0.7,0.4,1.1,0.4
		c0.4,0,0.8-0.1,1.1-0.4c0.3-0.3,0.4-0.7,0.4-1.1c0-0.4-0.1-0.8-0.4-1.1C92.5,12.8,92.2,12.7,91.7,12.7z"/>
	<path class="st0" d="M84,9.4c0.3-0.3,0.4-0.7,0.4-1.1c0-0.4-0.1-0.8-0.4-1.1c-0.3-0.3-0.7-0.4-1.1-0.4c-0.4,0-0.8,0.1-1.1,0.4
		c-0.3,0.3-0.4,0.7-0.4,1.1c0,0.4,0.1,0.8,0.4,1.1c0.3,0.3,0.7,0.4,1.1,0.4C83.4,9.8,83.7,9.7,84,9.4z"/>
	<path class="st0" d="M103.9,6.8c-0.4,0-0.8,0.1-1.1,0.4c-0.3,0.3-0.4,0.7-0.4,1.1c0,0.4,0.1,0.8,0.4,1.1s0.7,0.4,1.1,0.4
		c0.4,0,0.8-0.1,1.1-0.4c0.3-0.3,0.4-0.7,0.4-1.1c0-0.4-0.1-0.8-0.4-1.1C104.7,6.9,104.3,6.8,103.9,6.8z"/>
	<path class="st0" d="M96.5,6.9c0.4,0,0.8-0.1,1.1-0.4C97.8,6.3,97.9,6,98,5.8C98,6,98.2,6.3,98.4,6.5c0.3,0.3,0.7,0.4,1.1,0.4
		c0.4,0,0.8-0.1,1.1-0.4c0.2-0.2,0.3-0.4,0.4-0.7c0.1,0.2,0.2,0.5,0.4,0.7c0.3,0.3,0.7,0.4,1.1,0.4c0.4,0,0.8-0.1,1.1-0.4
		c0.3-0.3,0.4-0.7,0.4-1.1c0-0.4-0.1-0.8-0.4-1.1c-0.3-0.3-0.7-0.4-1.1-0.4c-0.4,0-0.8,0.1-1.1,0.4c-0.2,0.2-0.3,0.4-0.4,0.7
		c-0.1-0.3-0.2-0.5-0.4-0.7c-0.3-0.3-0.7-0.4-1.1-0.4c-0.4,0-0.8,0.1-1.1,0.4C98.2,4.5,98,4.7,98,5c-0.1-0.3-0.2-0.5-0.4-0.7
		c-0.3-0.3-0.7-0.4-1.1-0.4c-0.4,0-0.8,0.1-1.1,0.4C95.1,4.6,95,4.9,95,5.4c0,0.4,0.1,0.8,0.4,1.1S96.1,6.9,96.5,6.9z"/>
	<path class="st0" d="M96.1,15.3c0.3-0.3,0.4-0.7,0.4-1.1c0-0.4-0.1-0.8-0.4-1.1c-0.2-0.2-0.4-0.3-0.7-0.4c0.3-0.1,0.5-0.2,0.7-0.4
		c0.3-0.3,0.4-0.7,0.4-1.1c0-0.4-0.1-0.8-0.4-1.1c-0.2-0.2-0.4-0.3-0.7-0.4c0.3-0.1,0.5-0.2,0.7-0.4c0.3-0.3,0.4-0.7,0.4-1.1
		c0-0.4-0.1-0.8-0.4-1.1c-0.3-0.3-0.7-0.4-1.1-0.4c-0.4,0-0.8,0.1-1.1,0.4c-0.3,0.3-0.4,0.7-0.4,1.1c0,0.4,0.1,0.8,0.4,1.1
		c0.2,0.2,0.4,0.3,0.7,0.4c-0.2,0.1-0.5,0.2-0.7,0.4c-0.3,0.3-0.4,0.7-0.4,1.1c0,0.4,0.1,0.8,0.4,1.1c0.2,0.2,0.4,0.3,0.7,0.4
		c-0.2,0.1-0.5,0.2-0.7,0.4c-0.3,0.3-0.4,0.7-0.4,1.1c0,0.4,0.1,0.8,0.4,1.1c0.3,0.3,0.7,0.4,1.1,0.4C95.5,15.7,95.8,15.6,96.1,15.3
		z"/>
	<path class="st0" d="M102.4,15.6c-0.4,0-0.8,0.1-1.1,0.4c-0.2,0.2-0.3,0.4-0.4,0.7c-0.1-0.3-0.2-0.5-0.4-0.7
		c-0.3-0.3-0.7-0.4-1.1-0.4c-0.4,0-0.8,0.1-1.1,0.4c-0.2,0.2-0.3,0.4-0.4,0.7c-0.1-0.3-0.2-0.5-0.4-0.7c-0.3-0.3-0.7-0.4-1.1-0.4
		c-0.4,0-0.8,0.1-1.1,0.4c-0.3,0.3-0.4,0.7-0.4,1.1c0,0.4,0.1,0.8,0.4,1.1c0.3,0.3,0.7,0.4,1.1,0.4c0.4,0,0.8-0.1,1.1-0.4
		c0.2-0.2,0.3-0.4,0.4-0.7c0.1,0.2,0.2,0.5,0.4,0.7c0.3,0.3,0.7,0.4,1.1,0.4c0.4,0,0.8-0.1,1.1-0.4c0.2-0.2,0.3-0.4,0.4-0.7
		c0.1,0.2,0.2,0.5,0.4,0.7c0.3,0.3,0.7,0.4,1.1,0.4c0.4,0,0.8-0.1,1.1-0.4c0.3-0.3,0.4-0.7,0.4-1.1c0-0.4-0.1-0.8-0.4-1.1
		C103.2,15.7,102.8,15.6,102.4,15.6z"/>
	<path class="st0" d="M110.5,6.9c0.4,0,0.8-0.1,1.1-0.4c0.2-0.2,0.3-0.4,0.4-0.7c0.1,0.2,0.2,0.5,0.4,0.7c0.3,0.3,0.7,0.4,1.1,0.4
		c0.4,0,0.8-0.1,1.1-0.4s0.4-0.7,0.4-1.1c0-0.4-0.1-0.8-0.4-1.1c-0.3-0.3-0.7-0.4-1.1-0.4c-0.4,0-0.8,0.1-1.1,0.4
		C112.2,4.5,112,4.7,112,5c-0.1-0.3-0.2-0.5-0.4-0.7c-0.3-0.3-0.7-0.4-1.1-0.4c-0.4,0-0.8,0.1-1.1,0.4c-0.3,0.3-0.4,0.7-0.4,1.1
		c0,0.4,0.1,0.8,0.4,1.1S110.1,6.9,110.5,6.9z"/>
	<path class="st0" d="M113.8,7.2c-0.3,0.3-0.4,0.7-0.4,1.1c0,0.4,0.1,0.8,0.4,1.1s0.7,0.4,1.1,0.4c0.4,0,0.8-0.1,1.1-0.4
		c0.3-0.3,0.4-0.7,0.4-1.1c0-0.4-0.1-0.8-0.4-1.1c-0.3-0.3-0.7-0.4-1.1-0.4C114.5,6.8,114.1,6.9,113.8,7.2z"/>
	<path class="st0" d="M109,9.8c0.4,0,0.8-0.1,1.1-0.4c0.3-0.3,0.4-0.7,0.4-1.1c0-0.4-0.1-0.8-0.4-1.1c-0.3-0.3-0.7-0.4-1.1-0.4
		c-0.4,0-0.8,0.1-1.1,0.4c-0.3,0.3-0.4,0.7-0.4,1.1c0,0.4,0.1,0.8,0.4,1.1S108.6,9.8,109,9.8z"/>
	<path class="st0" d="M109.1,14.2c0-0.4-0.1-0.8-0.4-1.1c-0.2-0.2-0.4-0.3-0.7-0.4c0.3-0.1,0.5-0.2,0.7-0.4c0.3-0.3,0.4-0.7,0.4-1.1
		c0-0.4-0.1-0.8-0.4-1.1c-0.3-0.3-0.7-0.4-1.1-0.4c-0.4,0-0.8,0.1-1.1,0.4c-0.3,0.3-0.4,0.7-0.4,1.1c0,0.4,0.1,0.8,0.4,1.1
		c0.2,0.2,0.4,0.3,0.7,0.4c-0.2,0.1-0.5,0.2-0.7,0.4c-0.3,0.3-0.4,0.7-0.4,1.1c0,0.4,0.1,0.8,0.4,1.1c0.2,0.2,0.4,0.3,0.7,0.4
		c-0.2,0.1-0.5,0.2-0.7,0.4c-0.3,0.3-0.4,0.7-0.4,1.1c0,0.4,0.1,0.8,0.4,1.1c0.3,0.3,0.7,0.4,1.1,0.4c0.4,0,0.8-0.1,1.1-0.4
		c0.3-0.3,0.4-0.7,0.4-1.1c0-0.4-0.1-0.8-0.4-1.1c-0.2-0.2-0.4-0.3-0.7-0.4c0.3-0.1,0.5-0.2,0.7-0.4C108.9,15,109.1,14.6,109.1,14.2
		z"/>
	<path class="st0" d="M114.5,11.7c-0.3-0.3-0.7-0.4-1.1-0.4c-0.4,0-0.8,0.1-1.1,0.4c-0.2,0.2-0.3,0.4-0.4,0.7
		c-0.1-0.3-0.2-0.5-0.4-0.7c-0.3-0.3-0.7-0.4-1.1-0.4c-0.4,0-0.8,0.1-1.1,0.4c-0.3,0.3-0.4,0.7-0.4,1.1c0,0.4,0.1,0.8,0.4,1.1
		c0.3,0.3,0.7,0.4,1.1,0.4c0.4,0,0.8-0.1,1.1-0.4c0.2-0.2,0.3-0.4,0.4-0.7c0.1,0.2,0.2,0.5,0.4,0.7c0.3,0.3,0.7,0.4,1.1,0.4
		c0.4,0,0.8-0.1,1.1-0.4c0.3-0.3,0.4-0.7,0.4-1.1C115,12.3,114.8,11.9,114.5,11.7z"/>
	<path class="st0" d="M117.9,11.3c0-0.4-0.1-0.8-0.4-1.1c-0.3-0.3-0.7-0.4-1.1-0.4c-0.4,0-0.8,0.1-1.1,0.4c-0.3,0.3-0.4,0.7-0.4,1.1
		c0,0.4,0.1,0.8,0.4,1.1c0.2,0.2,0.4,0.3,0.7,0.4c-0.2,0.1-0.5,0.2-0.7,0.4c-0.3,0.3-0.4,0.7-0.4,1.1c0,0.4,0.1,0.8,0.4,1.1
		c0.2,0.2,0.4,0.3,0.7,0.4c-0.2,0.1-0.5,0.2-0.7,0.4c-0.3,0.3-0.4,0.7-0.4,1.1c0,0.4,0.1,0.8,0.4,1.1c0.3,0.3,0.7,0.4,1.1,0.4
		c0.4,0,0.8-0.1,1.1-0.4c0.3-0.3,0.4-0.7,0.4-1.1c0-0.4-0.1-0.8-0.4-1.1c-0.2-0.2-0.4-0.3-0.7-0.4c0.3-0.1,0.5-0.2,0.7-0.4
		c0.3-0.3,0.4-0.7,0.4-1.1c0-0.4-0.1-0.8-0.4-1.1c-0.2-0.2-0.4-0.3-0.7-0.4c0.3-0.1,0.5-0.2,0.7-0.4C117.7,12,117.9,11.7,117.9,11.3
		z"/>
	<path class="st0" d="M131,8.3c0-0.4-0.1-0.8-0.4-1.1c-0.2-0.2-0.4-0.3-0.7-0.4c0.3-0.1,0.5-0.2,0.7-0.4c0.3-0.3,0.4-0.7,0.4-1.1
		c0-0.4-0.1-0.8-0.4-1.1c-0.3-0.3-0.7-0.4-1.1-0.4c-0.4,0-0.8,0.1-1.1,0.4c-0.3,0.3-0.4,0.7-0.4,1.1c0,0.4,0.1,0.8,0.4,1.1
		c0.2,0.2,0.4,0.3,0.7,0.4c-0.2,0.1-0.5,0.2-0.7,0.4c-0.3,0.3-0.4,0.7-0.4,1.1c0,0.4,0.1,0.8,0.4,1.1c0.2,0.2,0.4,0.3,0.7,0.4
		c-0.2,0.1-0.5,0.2-0.7,0.4c-0.3,0.3-0.4,0.7-0.4,1.1c0,0.4,0.1,0.8,0.4,1.1c0.2,0.2,0.4,0.3,0.7,0.4c-0.2,0.1-0.5,0.2-0.7,0.4
		c-0.2,0.2-0.3,0.4-0.4,0.7c-0.1-0.3-0.2-0.5-0.4-0.7c-0.3-0.3-0.7-0.4-1.1-0.4c-0.4,0-0.8,0.1-1.1,0.4c-0.3,0.3-0.4,0.7-0.4,1.1
		c0,0.4,0.1,0.8,0.4,1.1c0.3,0.3,0.7,0.4,1.1,0.4c0.4,0,0.8-0.1,1.1-0.4c0.2-0.2,0.3-0.4,0.4-0.7c0.1,0.2,0.2,0.5,0.4,0.7
		c0.2,0.2,0.4,0.3,0.7,0.4c-0.2,0.1-0.5,0.2-0.7,0.4c-0.3,0.3-0.4,0.7-0.4,1.1c0,0.4,0.1,0.8,0.4,1.1c0.3,0.3,0.7,0.4,1.1,0.4
		c0.4,0,0.8-0.1,1.1-0.4c0.3-0.3,0.4-0.7,0.4-1.1c0-0.4-0.1-0.8-0.4-1.1c-0.2-0.2-0.4-0.3-0.7-0.4c0.3-0.1,0.5-0.2,0.7-0.4
		c0.3-0.3,0.4-0.7,0.4-1.1c0-0.4-0.1-0.8-0.4-1.1c-0.2-0.2-0.4-0.3-0.7-0.4c0.3-0.1,0.5-0.2,0.7-0.4c0.3-0.3,0.4-0.7,0.4-1.1
		c0-0.4-0.1-0.8-0.4-1.1c-0.2-0.2-0.4-0.3-0.7-0.4c0.3-0.1,0.5-0.2,0.7-0.4C130.9,9.1,131,8.7,131,8.3z"/>
	<path class="st0" d="M126.2,12.3c0.3-0.3,0.4-0.7,0.4-1.1c0-0.4-0.1-0.8-0.4-1.1c-0.3-0.3-0.7-0.4-1.1-0.4c-0.4,0-0.8,0.1-1.1,0.4
		c-0.3,0.3-0.4,0.7-0.4,1.1c0,0.4,0.1,0.8,0.4,1.1c0.3,0.3,0.7,0.4,1.1,0.4C125.5,12.8,125.9,12.6,126.2,12.3z"/>
	<path class="st0" d="M122.1,8.8c0.1,0.2,0.2,0.4,0.4,0.6c0.3,0.3,0.7,0.4,1.1,0.4c0.4,0,0.8-0.1,1.1-0.4c0.3-0.3,0.4-0.7,0.4-1.1
		c0-0.4-0.1-0.8-0.4-1.1c-0.3-0.3-0.7-0.4-1.1-0.4c-0.4,0-0.8,0.1-1.1,0.4c-0.2,0.2-0.3,0.4-0.4,0.6c-0.1-0.2-0.2-0.5-0.4-0.6
		c-0.2-0.2-0.4-0.3-0.7-0.4c0.3-0.1,0.5-0.2,0.7-0.4c0.3-0.3,0.4-0.7,0.4-1.1c0-0.4-0.1-0.8-0.4-1.1c-0.3-0.3-0.7-0.4-1.1-0.4
		c-0.4,0-0.8,0.1-1.1,0.4c-0.3,0.3-0.4,0.7-0.4,1.1c0,0.4,0.1,0.8,0.4,1.1c0.2,0.2,0.4,0.3,0.7,0.4c-0.2,0.1-0.5,0.2-0.7,0.4
		c-0.3,0.3-0.4,0.7-0.4,1.1c0,0.4,0.1,0.8,0.4,1.1c0.2,0.2,0.4,0.3,0.7,0.4c-0.2,0.1-0.5,0.2-0.7,0.4c-0.3,0.3-0.4,0.7-0.4,1.1
		c0,0.4,0.1,0.8,0.4,1.1c0.2,0.2,0.4,0.3,0.7,0.4c-0.2,0.1-0.5,0.2-0.7,0.4c-0.3,0.3-0.4,0.7-0.4,1.1c0,0.4,0.1,0.8,0.4,1.1
		c0.2,0.2,0.4,0.3,0.7,0.4c-0.2,0.1-0.5,0.2-0.7,0.4c-0.3,0.3-0.4,0.7-0.4,1.1c0,0.4,0.1,0.8,0.4,1.1c0.3,0.3,0.7,0.4,1.1,0.4
		c0.4,0,0.8-0.1,1.1-0.4c0.3-0.3,0.4-0.7,0.4-1.1c0-0.4-0.1-0.8-0.4-1.1c-0.2-0.2-0.4-0.3-0.7-0.4c0.3-0.1,0.5-0.2,0.7-0.4
		c0.3-0.3,0.4-0.7,0.4-1.1c0-0.4-0.1-0.8-0.4-1.1c-0.2-0.2-0.4-0.3-0.7-0.4c0.3-0.1,0.5-0.2,0.7-0.4c0.3-0.3,0.4-0.7,0.4-1.1
		c0-0.4-0.1-0.8-0.4-1.1c-0.2-0.2-0.4-0.3-0.7-0.4c0.3-0.1,0.5-0.2,0.7-0.4C121.9,9.2,122,9,122.1,8.8z"/>
</g>
</svg>
