<?xml version="1.0" encoding="utf-8"?>
<!-- Generator: Adobe Illustrator 27.9.0, SVG Export Plug-In . SVG Version: 6.00 Build 0)  -->
<svg version="1.1" id="Layer_1" xmlns="http://www.w3.org/2000/svg" xmlns:xlink="http://www.w3.org/1999/xlink" x="0px" y="0px"
	 viewBox="0 0 131 25" style="enable-background:new 0 0 131 25;" xml:space="preserve">
<style type="text/css">
	.st0{fill:#FFFFFF;}
	.st1{fill:url(#SVGID_1_);}
</style>
<path class="st0" d="M32.8701,9.434v2.8916h5.567v3.297h-5.567v5.5025H29.445V6.1362h9.0984V9.434H32.8701z"/>
<path class="st0" d="M50.9257,10.4191V21.125h-3.2115v-1.006c-0.7079,0.8142-1.7557,1.3059-3.1906,1.3059
	c-2.8053,0-5.1189-2.4618-5.1189-5.6524s2.3136-5.6533,5.1189-5.6533c1.4349,0,2.4827,0.4925,3.1906,1.3059v-1.006H50.9257z
	 M47.7142,15.7725c0-1.6058-1.0723-2.6118-2.549-2.6118s-2.5472,1.006-2.5472,2.6118s1.0705,2.6118,2.5472,2.6118
	S47.7142,17.3783,47.7142,15.7725z"/>
<path class="st0" d="M52.2159,15.7725c0-3.1906,2.42-5.6533,5.6751-5.6533c2.0765,0,3.9176,1.0923,4.8399,2.7416l-2.8053,1.6267
	c-0.3644-0.7497-1.135-1.1995-2.0782-1.1995c-1.3913,0-2.4182,1.0077-2.4182,2.4845s1.0269,2.4845,2.4182,2.4845
	c0.9432,0,1.7348-0.4498,2.0782-1.1995l2.8053,1.6058c-0.9223,1.6703-2.7408,2.7617-4.8399,2.7617
	C54.6359,21.4249,52.2159,18.9631,52.2159,15.7725z"/>
<path class="st0" d="M69.3213,18.5569c0.877,0,1.6267-0.3435,2.0556-0.8142l2.5699,1.4767
	c-1.0496,1.4558-2.6344,2.2055-4.6691,2.2055c-3.6613,0-5.9314-2.4618-5.9314-5.6524s2.3136-5.6533,5.696-5.6533
	c3.1261,0,5.4397,2.4191,5.4397,5.6533c0,0.4498-0.0436,0.877-0.129,1.285h-7.6016C67.1593,18.1698,68.1427,18.5569,69.3213,18.5569
	z M71.2914,14.6584c-0.3435-1.2414-1.3059-1.6912-2.27-1.6912c-1.2205,0-2.0347,0.5998-2.3345,1.6912H71.2914z"/>
<path class="st0" d="M78.9837,13.5025v3.7904c0,0.9206,0.7915,1.006,2.2055,0.9206v2.9116c-4.1966,0.4289-5.417-0.8351-5.417-3.8322
	V8.3844l3.2115-0.9633v2.9979h2.2055v3.0834H78.9837z"/>
<g>
	<path class="st0" d="M9.6686,24.3082L0.3616,8.9049c-0.47-0.7779-0.4826-1.7492-0.0329-2.539l2.8538-5.0122
		C3.6287,0.57,4.4611,0.0861,5.3629,0.0861h18.8245c0.9761,0,1.5783,1.0657,1.0746,1.9019l-2.6762,4.4427
		c-0.454,0.7536-1.2695,1.2144-2.1492,1.2144H8.458l6.6983,11.1187l-3.3392,5.543C11.3297,25.1157,10.157,25.1165,9.6686,24.3082z"
		/>
</g>
<g>
	<linearGradient id="SVGID_1_" gradientUnits="userSpaceOnUse" x1="8.0057" y1="17.8642" x2="16.5745" y2="13.059">
		<stop  offset="0" style="stop-color:#000000"/>
		<stop  offset="1" style="stop-color:#FFFFFF"/>
	</linearGradient>
	<path class="st1" d="M17.3572,11.4244h-6.6224l4.4214,7.3393l3.2756-5.4374C18.9355,12.4902,18.3333,11.4244,17.3572,11.4244z"/>
</g>
<path class="st0" d="M84.7084,17.8005l0.9646-0.5766c0.5029,1.7937,1.9911,3.0107,4.4026,3.0107
	c2.4528,0,3.6895-1.2809,3.6895-2.9891c0-1.7937-1.551-2.4764-3.7946-3.2023c-2.4528-0.8119-4.6541-1.5167-4.6541-4.1212
	c0-2.4552,1.9499-4.0137,4.4449-4.0137c2.4105,0,4.0038,1.4091,4.717,3.1384l-0.944,0.5334
	c-0.5442-1.3448-1.6768-2.5829-3.773-2.5829c-2.0343,0-3.3133,1.2166-3.3133,2.882c0,1.7932,1.4892,2.3482,3.5854,3.053
	c2.6001,0.8762,4.8643,1.7082,4.8643,4.2916c0,2.4764-1.9076,4.0991-4.8221,4.0991C87.3292,21.323,85.3793,19.9144,84.7084,17.8005z
	"/>
<path class="st0" d="M96.7425,15.7504c0-3.16,2.3477-5.5726,5.5136-5.5726c2.055,0,3.8162,1.0678,4.5706,2.7327l-0.8595,0.5128
	c-0.608-1.3453-2.0333-2.2205-3.7111-2.2205c-2.5363,0-4.4449,2.0068-4.4449,4.5475c0,2.5412,1.9086,4.548,4.4449,4.548
	c1.6984,0,3.0824-0.8968,3.774-2.221l0.8811,0.5344c-0.8389,1.6434-2.6001,2.7111-4.6551,2.7111
	C99.0902,21.323,96.7425,18.9104,96.7425,15.7504z"/>
<path class="st0" d="M119.1545,10.4131v10.6751h-1.0687v-2.4125c-0.8811,1.6011-2.495,2.6473-4.5077,2.6473
	c-2.9773,0-5.4301-2.4125-5.4301-5.5726s2.4528-5.5726,5.4301-5.5726c2.0127,0,3.6266,1.0461,4.5077,2.6478v-2.4125H119.1545z
	 M118.0858,15.7504c0-2.5407-1.9292-4.5475-4.4242-4.5475s-4.4449,2.0068-4.4449,4.5475c0,2.5412,1.9499,4.548,4.4449,4.548
	S118.0858,18.2916,118.0858,15.7504z"/>
<path class="st0" d="M131,14.4489v6.6393h-1.0697v-6.6393c0-1.9651-1.111-3.246-3.0815-3.246c-2.055,0-3.6689,1.3664-3.6689,4.2489
	v5.6364h-1.0491V10.4131h1.0491v2.0279c0.7966-1.58,2.1385-2.2632,3.7524-2.2632C129.4274,10.1779,131,11.8649,131,14.4489z"/>
</svg>
