<?xml version="1.0" encoding="utf-8"?>
<!-- Generator: Adobe Illustrator 27.5.0, SVG Export Plug-In . SVG Version: 6.00 Build 0)  -->
<svg version="1.1" id="Layer_1" xmlns="http://www.w3.org/2000/svg" xmlns:xlink="http://www.w3.org/1999/xlink" x="0px" y="0px"
	 viewBox="0 0 71.08 100" style="enable-background:new 0 0 71.08 100;" xml:space="preserve">
<path d="M71.0738,31.483c0.0024-0.0184-0.0022-0.0366-0.0007-0.0551c0.0086-0.1002,0.0113-0.2008-0.005-0.2992
	c-0.0017-0.0101-0.0074-0.0192-0.0093-0.0293c-0.0201-0.1055-0.0504-0.2094-0.0983-0.3068
	c-0.0527-0.1073-0.1216-0.2078-0.2066-0.2975c-0.0321-0.0335-0.0724-0.054-0.1075-0.0832
	c-0.1505-0.1265-0.3212-0.2227-0.5087-0.2635c-0.2313-0.051-0.4767-0.0343-0.7051,0.0572l-18.0725,7.229
	c-0.139,0.0557-0.2582,0.142-0.365,0.2408c-0.0195,0.0179-0.0389,0.0334-0.0571,0.0526c-0.0966,0.1017-0.1737,0.2186-0.2302,0.3484
	c-0.0048,0.011-0.015,0.0183-0.0194,0.0294l-3.2989,8.2492L39.7365,6.998c-0.0121-0.0629-0.0422-0.1176-0.0636-0.1765
	l-1.1412-5.8483c-0.0941-0.4806-0.4695-0.8566-0.9495-0.9513c-0.4753-0.0924-0.9707,0.1112-1.239,0.5195L6.2224,46.325
	c-0.0671,0.1019-0.1144,0.2122-0.1474,0.3258c-0.0013,0.0043-0.0049,0.0075-0.0061,0.0119
	c-0.004,0.0146,0.0003,0.0297-0.0032,0.0443c-0.0294,0.1226-0.037,0.2469-0.0274,0.3721c0.0028,0.0372,0.0056,0.0723,0.0119,0.1091
	c0.0237,0.14,0.0632,0.2777,0.1369,0.4046l6.3243,10.8778L2.0038,51.6056c-0.3689-0.2424-0.8407-0.2624-1.2278-0.0541
	c-0.3883,0.2083-0.6318,0.6118-0.6359,1.0519L0,68.6567c-0.0014,0.1629,0.0402,0.3156,0.0993,0.4604
	c0.0143,0.0353,0.029,0.0674,0.0466,0.1013c0.0724,0.1391,0.1627,0.2678,0.2838,0.3699c0.0016,0.0014,0.0021,0.0036,0.0038,0.005
	l36.1437,30.1278c0.0188,0.0156,0.0428,0.0213,0.0624,0.0356c0.0508,0.0374,0.1007,0.0747,0.1563,0.1035
	c0.0169,0.0088,0.0326,0.0186,0.0499,0.0266c0.0166,0.0076,0.034,0.01,0.0509,0.0168c0.0285,0.0116,0.0557,0.0227,0.0849,0.0321
	c0.0408,0.0132,0.0813,0.0238,0.1233,0.0325c0.0182,0.0038,0.0338,0.0134,0.0523,0.0164C37.221,99.9953,37.2857,100,37.3492,100
	c0.0003,0,0.0006-0.0001,0.0009-0.0001c0.0001,0,0.0002,0.0001,0.0003,0.0001c0.0004,0,0.0007-0.0001,0.0011-0.0001
	c0.0569-0.0002,0.1138-0.0035,0.1707-0.0128c0.0124-0.0018,0.0221-0.0105,0.0343-0.0126c0.0421-0.0074,0.0835-0.0137,0.1244-0.0254
	c0.031-0.0089,0.0598-0.0228,0.0902-0.0342c0.0144-0.0054,0.0297-0.0029,0.044-0.0089c0.0121-0.0051,0.0199-0.0154,0.0317-0.0207
	c0.0405-0.0185,0.0796-0.038,0.1179-0.061c0.0167-0.0099,0.0321-0.0194,0.0482-0.0302c0.0119-0.0079,0.0257-0.0104,0.0375-0.0188
	c0.0131-0.0094,0.0196-0.0239,0.0321-0.0337c0.0294-0.0227,0.0602-0.0424,0.0876-0.0679c0.0154-0.0145,0.026-0.0319,0.0406-0.0471
	c0.0497-0.0515,0.1003-0.1021,0.1409-0.1631l0.0088-0.0132c0.0001-0.0001,0.0001-0.0001,0.0001-0.0001l7.22-10.8301l9.7163-14.5745
	l4.7417-7.1125c0.2706-0.4059,0.2694-0.9354-0.0024-1.3401c-0.273-0.4047-0.7577-0.6001-1.2401-0.5095l-3.4999,0.7096
	l15.6776-33.9637c0.0232-0.0505,0.0293-0.1043,0.0452-0.1566C71.0384,31.6095,71.0652,31.5477,71.0738,31.483z M20.3032,41.2499
	l1.6391,5.9709L33.735,90.1813L17.1506,61.6548L8.894,47.454L20.3032,41.2499z M4.0322,55.8095l1.3095,7.2949l-2.9074,2.745
	l0.0959-11.0211L4.0322,55.8095z M6.5583,65.2698l19.9854,22.9505L3.0194,68.6115L6.5583,65.2698z M52.2163,40.7761l3.2624,3.543
	l-8.04,18.0116l0.7393-11.4588L52.2163,40.7761z M63.7931,38.3875l-6.6807,4.1495l-3.2352-3.5134l13.6233-5.4498l-1.6494,3.5353
	L63.7931,38.3875z M36.7327,4.3336l0.5345,2.7396L20.1737,38.5777l-9.2942,5.0536L36.7327,4.3336z M53.8919,71.8087l-4.5133-2.3561
	l4.066-0.8241c0.0005-0.0001,0.0011,0,0.0016-0.0001l2.9674-0.6024L53.8919,71.8087z"/>
</svg>
